<mxfile host="app.diagrams.net" modified="2024-07-03T14:27:29.687Z" agent="Mozilla/5.0 (Windows NT 10.0; Win64; x64) AppleWebKit/537.36 (KHTML, like Gecko) Chrome/126.0.0.0 Safari/537.36" version="24.6.4" etag="QzRAiRxnv3cQUVQLqM5B" type="github">
  <diagram name="Page-1" id="6NGP_eWtfIxWIhXjmUG5">
    <mxGraphModel>
      <root>
        <mxCell id="0" />
        <mxCell id="1" parent="0" />
      </root>
    </mxGraphModel>
  </diagram>
</mxfile>
